<svg width="130" height="80" viewBox="0 0 130 80" xmlns="http://www.w3.org/2000/svg">
  <rect x="65" y="44" width="37" fill="white" class="dark-mode"/>
  <path d="M32.1877 27.4969V34.1877H25.4969V27.4969H32.1877ZM35.5331 24.1514H22.1514V37.5331H35.5331V24.1514ZM32.1877 45.3391V52.03H25.4969V45.3391H32.1877ZM35.5331 41.9937H22.1514V55.3754H35.5331V41.9937ZM50.03 27.4969V34.1877H43.3391V27.4969H50.03ZM53.3754 24.1514H39.9937V37.5331H53.3754V24.1514ZM39.9937 41.9937H43.3391V45.3391H39.9937V41.9937ZM43.3391 45.3391H46.6846V48.6846H43.3391V45.3391ZM46.6846 41.9937H50.03V45.3391H46.6846V41.9937ZM39.9937 48.6846H43.3391V52.03H39.9937V48.6846ZM43.3391 52.03H46.6846V55.3754H43.3391V52.03ZM46.6846 48.6846H50.03V52.03H46.6846V48.6846ZM50.03 45.3391H53.3754V48.6846H50.03V45.3391ZM50.03 52.03H53.3754V55.3754H50.03V52.03ZM60.0663 28.612H55.6057V21.9211H48.9148V17.4606H60.0663V28.612ZM60.0663 62.0663V50.9148H55.6057V57.6057H48.9148V62.0663H60.0663ZM15.4606 62.0663H26.612V57.6057H19.9211V50.9148H15.4606V62.0663ZM15.4606 17.4606V28.612H19.9211V21.9211H26.612V17.4606H15.4606Z" fill="black"/>
<path d="M32.1877 27.4969V34.1877H25.4969V27.4969H32.1877ZM35.5331 24.1514H22.1514V37.5331H35.5331V24.1514ZM32.1877 45.3391V52.03H25.4969V45.3391H32.1877ZM35.5331 41.9937H22.1514V55.3754H35.5331V41.9937ZM50.03 27.4969V34.1877H43.3391V27.4969H50.03ZM53.3754 24.1514H39.9937V37.5331H53.3754V24.1514ZM39.9937 41.9937H43.3391V45.3391H39.9937V41.9937ZM43.3391 45.3391H46.6846V48.6846H43.3391V45.3391ZM46.6846 41.9937H50.03V45.3391H46.6846V41.9937ZM39.9937 48.6846H43.3391V52.03H39.9937V48.6846ZM43.3391 52.03H46.6846V55.3754H43.3391V52.03ZM46.6846 48.6846H50.03V52.03H46.6846V48.6846ZM50.03 45.3391H53.3754V48.6846H50.03V45.3391ZM50.03 52.03H53.3754V55.3754H50.03V52.03ZM60.0663 28.612H55.6057V21.9211H48.9148V17.4606H60.0663V28.612ZM60.0663 62.0663V50.9148H55.6057V57.6057H48.9148V62.0663H60.0663ZM15.4606 62.0663H26.612V57.6057H19.9211V50.9148H15.4606V62.0663ZM15.4606 17.4606V28.612H19.9211V21.9211H26.612V17.4606H15.4606Z" fill="white"/>
  <path d="M66.517 40V22.5455H73.4034C74.7216 22.5455 75.8466 22.7812 76.7784 23.2528C77.7159 23.7187 78.429 24.3807 78.9176 25.2386C79.4119 26.0909 79.6591 27.0937 79.6591 28.2472C79.6591 29.4062 79.4091 30.4034 78.9091 31.2386C78.4091 32.0682 77.6847 32.7045 76.7358 33.1477C75.7926 33.5909 74.6506 33.8125 73.3097 33.8125H68.6989V30.8466H72.7131C73.4176 30.8466 74.0028 30.75 74.4688 30.5568C74.9347 30.3636 75.2813 30.0739 75.5085 29.6875C75.7415 29.3011 75.858 28.821 75.858 28.2472C75.858 27.6676 75.7415 27.179 75.5085 26.7812C75.2813 26.3835 74.9318 26.0824 74.4602 25.8778C73.9943 25.6676 73.4063 25.5625 72.696 25.5625H70.2074V40H66.517ZM75.9432 32.0568L80.2812 40H76.2074L71.9631 32.0568H75.9432ZM82.267 40V22.5455H89.1534C90.4716 22.5455 91.5966 22.7812 92.5284 23.2528C93.4659 23.7187 94.179 24.3807 94.6676 25.2386C95.1619 26.0909 95.4091 27.0937 95.4091 28.2472C95.4091 29.4062 95.1591 30.4034 94.6591 31.2386C94.1591 32.0682 93.4347 32.7045 92.4858 33.1477C91.5426 33.5909 90.4006 33.8125 89.0597 33.8125H84.4489V30.8466H88.4631C89.1676 30.8466 89.7528 30.75 90.2188 30.5568C90.6847 30.3636 91.0313 30.0739 91.2585 29.6875C91.4915 29.3011 91.608 28.821 91.608 28.2472C91.608 27.6676 91.4915 27.179 91.2585 26.7812C91.0313 26.3835 90.6818 26.0824 90.2102 25.8778C89.7443 25.6676 89.1563 25.5625 88.446 25.5625H85.9574V40H82.267ZM91.6932 32.0568L96.0312 40H91.9574L87.7131 32.0568H91.6932Z" fill="black" class="dark-mode"/>
  <path d="M66.517 40V22.5455H73.4034C74.7216 22.5455 75.8466 22.7812 76.7784 23.2528C77.7159 23.7187 78.429 24.3807 78.9176 25.2386C79.4119 26.0909 79.6591 27.0937 79.6591 28.2472C79.6591 29.4062 79.4091 30.4034 78.9091 31.2386C78.4091 32.0682 77.6847 32.7045 76.7358 33.1477C75.7926 33.5909 74.6506 33.8125 73.3097 33.8125H68.6989V30.8466H72.7131C73.4176 30.8466 74.0028 30.75 74.4688 30.5568C74.9347 30.3636 75.2813 30.0739 75.5085 29.6875C75.7415 29.3011 75.858 28.821 75.858 28.2472C75.858 27.6676 75.7415 27.179 75.5085 26.7812C75.2813 26.3835 74.9318 26.0824 74.4602 25.8778C73.9943 25.6676 73.4063 25.5625 72.696 25.5625H70.2074V40H66.517ZM75.9432 32.0568L80.2812 40H76.2074L71.9631 32.0568H75.9432ZM82.267 40V22.5455H89.1534C90.4716 22.5455 91.5966 22.7812 92.5284 23.2528C93.4659 23.7187 94.179 24.3807 94.6676 25.2386C95.1619 26.0909 95.4091 27.0937 95.4091 28.2472C95.4091 29.4062 95.1591 30.4034 94.6591 31.2386C94.1591 32.0682 93.4347 32.7045 92.4858 33.1477C91.5426 33.5909 90.4006 33.8125 89.0597 33.8125H84.4489V30.8466H88.4631C89.1676 30.8466 89.7528 30.75 90.2188 30.5568C90.6847 30.3636 91.0313 30.0739 91.2585 29.6875C91.4915 29.3011 91.608 28.821 91.608 28.2472C91.608 27.6676 91.4915 27.179 91.2585 26.7812C91.0313 26.3835 90.6818 26.0824 90.2102 25.8778C89.7443 25.6676 89.1563 25.5625 88.446 25.5625H85.9574V40H82.267ZM91.6932 32.0568L96.0312 40H91.9574L87.7131 32.0568H91.6932Z" fill="white" class="dark-mode"/>
  <path d="M70.1364 59H66.0114V47.3636H70.1705C71.3409 47.3636 72.3485 47.5966 73.1932 48.0625C74.0379 48.5246 74.6875 49.1894 75.142 50.0568C75.6004 50.9242 75.8295 51.9621 75.8295 53.1705C75.8295 54.3826 75.6004 55.4242 75.142 56.2955C74.6875 57.1667 74.0341 57.8352 73.1818 58.3011C72.3333 58.767 71.3182 59 70.1364 59ZM68.4716 56.892H70.0341C70.7614 56.892 71.3731 56.7633 71.8693 56.5057C72.3693 56.2443 72.7443 55.8409 72.9943 55.2955C73.2481 54.7462 73.375 54.0379 73.375 53.1705C73.375 52.3106 73.2481 51.608 72.9943 51.0625C72.7443 50.517 72.3712 50.1155 71.875 49.858C71.3788 49.6004 70.767 49.4716 70.0398 49.4716H68.4716V56.892ZM81.5838 59.1705C80.6861 59.1705 79.9134 58.9886 79.2656 58.625C78.6217 58.2576 78.1255 57.7386 77.777 57.0682C77.4285 56.3939 77.2543 55.5966 77.2543 54.6761C77.2543 53.7784 77.4285 52.9905 77.777 52.3125C78.1255 51.6345 78.616 51.1061 79.2486 50.7273C79.8849 50.3485 80.6312 50.1591 81.4872 50.1591C82.063 50.1591 82.599 50.2519 83.0952 50.4375C83.5952 50.6193 84.0308 50.8939 84.402 51.2614C84.777 51.6288 85.0687 52.0909 85.277 52.6477C85.4853 53.2008 85.5895 53.8485 85.5895 54.5909V55.2557H78.2202V53.7557H83.3111C83.3111 53.4072 83.2353 53.0985 83.0838 52.8295C82.9323 52.5606 82.7221 52.3504 82.4531 52.1989C82.188 52.0436 81.8793 51.9659 81.527 51.9659C81.1596 51.9659 80.8338 52.0511 80.5497 52.2216C80.2694 52.3883 80.0497 52.6136 79.8906 52.8977C79.7315 53.178 79.6501 53.4905 79.6463 53.8352V55.2614C79.6463 55.6932 79.7259 56.0663 79.8849 56.3807C80.0478 56.6951 80.277 56.9375 80.5724 57.108C80.8679 57.2784 81.2183 57.3636 81.6236 57.3636C81.8925 57.3636 82.1387 57.3258 82.3622 57.25C82.5857 57.1742 82.777 57.0606 82.9361 56.9091C83.0952 56.7576 83.2164 56.572 83.2997 56.3523L85.5384 56.5C85.4247 57.0379 85.1918 57.5076 84.8395 57.9091C84.491 58.3068 84.0402 58.6174 83.4872 58.8409C82.938 59.0606 82.3035 59.1705 81.5838 59.1705ZM95.071 50.2727L92.0199 59H89.2926L86.2415 50.2727H88.7983L90.6108 56.517H90.7017L92.5085 50.2727H95.071Z" fill="white" class="dark-mode"/>
</svg>